<svg version="1.1" xmlns="http://www.w3.org/2000/svg" xmlns:xlink="http://www.w3.org/1999/xlink" viewBox="0 0 172 172"><g fill="none" fill-rule="nonzero" stroke="none" stroke-width="1" stroke-linecap="butt" stroke-linejoin="miter" stroke-miterlimit="10" stroke-dasharray="" stroke-dashoffset="0" font-family="none" font-weight="none" font-size="none" text-anchor="none" style="mix-blend-mode: normal"><path d="M0,172v-172h172v172z" fill="none"></path><g><circle cx="78" cy="14" transform="scale(1.72,1.72)" r="1" fill="#f1bc19"></circle><circle cx="50" cy="50" transform="scale(1.72,1.72)" r="38" fill="#f9dbd2"></circle><circle cx="84" cy="16" transform="scale(1.72,1.72)" r="4" fill="#f1bc19"></circle><circle cx="14" cy="26" transform="scale(1.72,1.72)" r="2" fill="#ee3e54"></circle><circle cx="78" cy="77" transform="scale(1.72,1.72)" r="2" fill="#fbcd59"></circle><circle cx="17" cy="78" transform="scale(1.72,1.72)" r="4" fill="#fbcd59"></circle><circle cx="24" cy="83" transform="scale(1.72,1.72)" r="2" fill="#ee3e54"></circle><circle cx="64.483" cy="78.517" transform="scale(1.72,1.72)" r="2.483" fill="#ffffff"></circle><circle cx="16" cy="48" transform="scale(1.72,1.72)" r="1" fill="#ffffff"></circle><circle cx="86" cy="31" transform="scale(1.72,1.72)" r="1" fill="#f1bc19"></circle><circle cx="84" cy="45" transform="scale(1.72,1.72)" r="2" fill="#ffffff"></circle><circle cx="50" cy="49.875" transform="scale(1.72,1.72)" r="24.25" fill="#fbb03b"></circle><path d="M86,128.699c-23.66376,0 -42.914,-19.25196 -42.914,-42.914c0,-23.66204 19.25024,-42.914 42.914,-42.914c23.66376,0 42.914,19.25196 42.914,42.914c0,23.66204 -19.25024,42.914 -42.914,42.914zM86,45.279c-22.3342,0 -40.506,18.17008 -40.506,40.506c0,22.33592 18.1718,40.506 40.506,40.506c22.3342,0 40.506,-18.17008 40.506,-40.506c0,-22.33592 -18.1718,-40.506 -40.506,-40.506z" fill="#472b29"></path><g fill="#e0fcf8"><ellipse cx="49.937" cy="50" transform="scale(1.72,1.72)" rx="20.437" ry="20.375"></ellipse></g><g fill="#472b29"><path d="M119.40928,76.755c-0.36808,0 -0.70692,-0.23736 -0.82216,-0.60716c-0.15308,-0.49364 -0.31648,-0.98384 -0.48848,-1.46888c-0.67252,-1.87652 -1.52392,-3.71004 -2.5284,-5.44896c-0.23908,-0.41108 -0.09804,-0.9374 0.31476,-1.17476c0.40592,-0.23736 0.93568,-0.09804 1.17476,0.31476c1.0578,1.82836 1.9522,3.75648 2.65912,5.72932c0.18232,0.50912 0.3526,1.0234 0.51256,1.54284c0.14104,0.45408 -0.11352,0.93568 -0.5676,1.075c-0.086,0.0258 -0.17028,0.03784 -0.25456,0.03784z"></path></g><g fill="#512c2b"><path d="M83.51976,73.92904l0.44892,-0.86172c-1.89888,-0.44548 -4.085,-0.37324 -5.88928,0.18576l0.56588,0.84108c1.48264,-0.49192 3.30756,-0.55384 4.87448,-0.16512z"></path></g><g fill="#512c2b"><path d="M93.0262,73.92904l0.44892,-0.86172c-1.89888,-0.44548 -4.085,-0.37324 -5.88928,0.18576l0.56588,0.84108c1.48264,-0.49192 3.30756,-0.55384 4.87448,-0.16512z"></path></g><g fill="#00a5a5"><path d="M71.92352,118.05908c-0.28552,0 -0.516,-0.23048 -0.516,-0.516v-4.0936c0,-0.28552 0.23048,-0.516 0.516,-0.516c0.28552,0 0.516,0.23048 0.516,0.516v4.0936c0,0.2838 -0.23048,0.516 -0.516,0.516z"></path></g><g fill="#00a5a5"><path d="M99.21304,118.77804c-0.28552,0 -0.516,-0.23048 -0.516,-0.516v-4.81428c0,-0.28552 0.23048,-0.516 0.516,-0.516c0.28552,0 0.516,0.23048 0.516,0.516v4.81428c-0.00172,0.28552 -0.23048,0.516 -0.516,0.516z"></path></g><g fill="#77cbd2"><path d="M106.92724,112.31256c-0.20812,-4.3774 -0.57448,-6.92472 -0.57448,-6.92472c-0.41968,-2.22396 -1.32612,-3.52772 -3.46408,-4.17272c-0.09288,-0.02752 -0.21672,-0.07396 -0.35776,-0.12728c-0.16168,-0.07052 -0.36636,-0.15308 -0.60716,-0.24596c-1.29516,-0.54696 -8.98872,-3.38668 -8.98872,-3.38668c-0.63468,-0.16168 -1.04748,-0.61232 -1.28484,-1.12144c-0.2752,-0.58652 -0.2838,-1.8146 -0.26316,-2.50948c1.2556,-0.95116 2.20504,-1.8662 2.47336,-2.12592c1.23668,-1.1954 2.365,-2.5972 2.77092,-4.24496c0.11008,-0.44548 0.18748,-0.78088 0.58824,-1.07844c0.72412,-0.53836 1.42932,-0.6536 1.88168,-1.48608c0.8084,-1.49124 1.3072,-5.27696 1.44308,-5.3578c-0.1892,-0.86344 -1.07672,-1.56176 -2.17236,-1.63572c-0.1204,-0.0086 -0.24424,-0.0086 -0.37324,-0.0086c-1.00104,-0.04816 -0.91504,0.32852 -0.87032,-0.29068c0.08084,-1.09908 -0.44204,-5.53496 -0.44204,-5.75856c0,-4.61992 -3.69112,-10.13596 -9.71628,-10.3458c0,0 -3.82872,-0.21672 -3.87,-0.215c-5.59,2.15 -8.92164,6.02344 -8.92164,10.64336c0,0.22532 -0.18748,4.59928 -0.10836,5.69836c0.04472,0.6192 0.36636,0.22016 -0.63468,0.27004c-0.12728,0 -0.25112,0.00172 -0.37324,0.0086c-1.09736,0.07224 -1.98488,0.77056 -2.17236,1.63572c0.13416,0.08256 0.63296,3.86656 1.44308,5.3578c0.45064,0.83248 1.15584,0.94944 1.88168,1.48608c0.40076,0.29756 0.47816,0.63296 0.58824,1.07844c0.40592,1.64776 1.53424,3.04956 2.77092,4.24496c0.26144,0.25112 1.1524,1.18508 2.35468,2.15344c-0.04128,0.93396 -0.10492,2.0468 -0.17716,2.43036c-0.10492,0.54868 -0.6966,1.01308 -1.33128,1.17476l-7.38396,2.67804c-0.817,0.21328 -1.60132,0.51772 -2.28932,0.94428c-1.8576,1.14724 -2.80016,2.86896 -3.27832,4.31204c0,0 -0.48676,3.43656 -0.46612,3.5604c-0.04644,0.4816 -0.0946,1.00964 -0.14104,1.56692c0.03268,0.02236 0.06536,0.04128 0.09804,0.06364c-0.02064,1.0922 -0.04128,2.5026 -0.06192,3.48816c5.8566,4.37568 13.115,6.97976 20.99948,6.97976c7.8346,0 15.05516,-2.56968 20.89284,-6.8972c-0.02752,-0.57104 -0.05504,-1.1524 -0.08428,-1.73032c0.06708,-0.04128 0.1548,-0.0774 0.22188,-0.1118z"></path></g><g fill="#472b29"><path d="M85.83832,96.8188c-2.26352,0 -6.01312,-2.73824 -6.17996,-2.85864c-0.19092,-0.14104 -0.2322,-0.40936 -0.09116,-0.60028c0.14104,-0.19264 0.40936,-0.23048 0.602,-0.09116c1.09736,0.80668 4.3258,2.85864 5.84972,2.6832c1.94016,-0.22016 5.08432,-2.4338 5.117,-2.45616c0.19264,-0.1376 0.46268,-0.09116 0.60028,0.10148c0.1376,0.19436 0.09116,0.46268 -0.1032,0.59856c-0.13588,0.09632 -3.35572,2.365 -5.51604,2.60924c-0.08944,0.0086 -0.18232,0.01376 -0.27864,0.01376z"></path></g><g fill="#472b29"><path d="M86,121.69c-19.79892,0 -35.905,-16.05792 -35.905,-35.79836c0,-19.74044 16.10608,-35.79664 35.905,-35.79664c10.277,0 20.07928,4.4032 26.89392,12.07956c0.516,0.57964 1.01136,1.17648 1.4878,1.79052c0.2924,0.37496 0.22532,0.91504 -0.15136,1.20744c-0.37324,0.29068 -0.91332,0.22532 -1.20572,-0.15136c-0.45408,-0.58308 -0.92536,-1.15068 -1.41728,-1.7028c-6.48784,-7.31 -15.82228,-11.50164 -25.60736,-11.50164c-18.84948,0 -34.185,15.28736 -34.185,34.07836c0,18.791 15.33552,34.07492 34.185,34.07492c18.84948,0 34.185,-15.28736 34.185,-34.07836c0,-1.70796 -0.12728,-3.42796 -0.38184,-5.11356c-0.07052,-0.46956 0.25112,-0.90816 0.7224,-0.97868c0.46956,-0.0688 0.90644,0.25112 0.97696,0.7224c0.2666,1.76988 0.40076,3.57588 0.40076,5.36812c0.00172,19.74216 -16.10436,35.80008 -35.90328,35.80008z"></path></g><g fill="#472b29"><path d="M106.86188,114.91492c-0.45752,0 -0.83592,-0.35776 -0.85828,-0.81872c-0.20984,-4.34816 -0.50912,-8.4624 -0.50912,-8.4624c-0.37324,-1.94532 -1.14896,-2.89648 -2.85348,-3.41076c-0.10836,-0.03268 -0.25112,-0.08428 -0.41452,-0.1462c-0.1892,-0.08084 -0.38528,-0.15996 -0.61232,-0.24768c-1.28484,-0.54352 -8.89928,-3.354 -8.97496,-3.38152c-0.72584,-0.17888 -1.3846,-0.74304 -1.76816,-1.56348c-0.0946,-0.20468 -0.38528,-0.82388 -0.34744,-2.7606c0.00516,-0.27176 0.13932,-0.52632 0.3612,-0.68456c1.26076,-0.89784 2.19816,-1.67528 2.37704,-1.849c1.42244,-1.3932 2.22912,-2.62644 2.537,-3.88032c0.12556,-0.52288 0.26316,-1.09392 0.90644,-1.57552c0.26488,-0.19952 0.52976,-0.35088 0.7826,-0.49364c0.45236,-0.25456 0.67768,-0.39216 0.85656,-0.72756c0.73272,-1.36568 1.29516,-3.9732 1.33644,-4.91232c-0.15308,-0.473 -0.7224,-0.8514 -1.3674,-0.89612c-0.10492,-0.00688 -0.20812,-0.00688 -0.31648,-0.00688l-0.43688,-0.02236c-0.4558,-0.02752 -0.81012,-0.40248 -0.81012,-0.85828v-5.117c0,-6.0458 -4.91748,-10.965 -10.965,-10.965h-0.215c-6.04752,0 -10.965,4.9192 -10.965,10.965v5.14624c0,0.23564 -0.09632,0.46096 -0.2666,0.62264c-0.17028,0.16168 -0.37668,0.24768 -0.63468,0.23564c0.00172,0 -0.25628,-0.01204 -0.27004,-0.01204c-0.10836,0 -0.21156,0 -0.31476,0.00688c-0.64672,0.043 -1.21604,0.4214 -1.36912,0.89612c0.04128,0.95116 0.63124,3.5948 1.33644,4.91232c0.17888,0.33368 0.4042,0.47128 0.85656,0.72756c0.25284,0.14276 0.51772,0.29412 0.7826,0.49364c0.64328,0.4816 0.78088,1.05264 0.903,1.55488c0.31132,1.27452 1.11628,2.50776 2.54216,3.90096c0.15996,0.1548 1.00964,0.83592 2.24976,1.70108c0.24252,0.16856 0.38012,0.44892 0.36636,0.74304c-0.09116,2.0554 -0.16856,2.4596 -0.19264,2.59204c-0.1892,0.9804 -1.12316,1.634 -1.96596,1.84728l-7.29968,2.65224c-0.87032,0.2322 -1.56176,0.516 -2.13108,0.86688c-1.65808,1.02168 -2.34436,1.75096 -2.90164,3.80464c-0.45752,1.68732 -0.52632,5.39392 -0.55384,6.97804c-0.0086,0.46268 -0.0172,0.78948 -0.02752,0.90988c-0.03784,0.47472 -0.4558,0.82216 -0.9288,0.78432c-0.473,-0.03956 -0.82388,-0.4558 -0.78432,-0.9288c0.0086,-0.10492 0.01204,-0.39044 0.02064,-0.79636c0.0344,-1.78536 0.1032,-5.50228 0.61404,-7.396c0.70864,-2.61612 1.74408,-3.6378 3.65672,-4.81772c0.71552,-0.44204 1.56348,-0.79292 2.52324,-1.04404l7.30656,-2.65396c0.46784,-0.12384 0.75336,-0.38872 0.78088,-0.52804c0.02236,-0.1118 0.07568,-0.51256 0.14276,-1.87652c-1.00792,-0.71896 -1.82664,-1.36052 -2.07604,-1.60648c-1.66668,-1.63056 -2.62128,-3.12524 -3.00656,-4.70592c-0.10836,-0.4472 -0.13588,-0.5074 -0.26832,-0.60716c-0.20296,-0.15136 -0.4042,-0.26316 -0.59684,-0.37152c-0.51772,-0.2924 -1.10424,-0.62264 -1.52736,-1.41212c-0.90644,-1.69248 -1.54284,-4.79192 -1.54284,-5.82564c0,-0.0602 0.00688,-0.12212 0.01892,-0.1806c0.2666,-1.2384 1.42588,-2.17924 2.838,-2.32028v-4.29312c0,-6.99352 5.69148,-12.685 12.685,-12.685h0.215c6.99352,0 12.685,5.68976 12.685,12.685v4.28968c1.4448,0.11352 2.6402,1.0664 2.91196,2.32716c0.01204,0.0602 0.01892,0.1204 0.01892,0.1806c0,1.15928 -0.6622,4.18132 -1.54284,5.82564c-0.42312,0.78948 -1.00964,1.11972 -1.52736,1.41212c-0.19092,0.10836 -0.39388,0.22016 -0.59684,0.37152c-0.13244,0.09976 -0.15996,0.15996 -0.26144,0.5848c-0.39216,1.60132 -1.34676,3.09772 -3.01172,4.72656c-0.25628,0.2494 -1.11112,0.9546 -2.22052,1.76128c0.0086,0.87204 0.09804,1.38116 0.18748,1.5738c0.16684,0.35432 0.40764,0.57276 0.71896,0.65188c0.40076,0.14276 7.81396,2.87928 9.11256,3.42796c0.22704,0.08772 0.44204,0.17544 0.6106,0.24768c0.086,0.03096 0.19092,0.07052 0.26832,0.0946c2.33748,0.7052 3.55008,2.15172 4.05748,4.83492c0.01376,0.09804 0.31304,4.23292 0.52288,8.60172c0.02408,0.47472 -0.34228,0.8772 -0.817,0.89956c-0.01204,0.00344 -0.0258,0.00344 -0.03956,0.00344z"></path></g></g></g></svg>