<svg version="1.1" xmlns="http://www.w3.org/2000/svg" xmlns:xlink="http://www.w3.org/1999/xlink" viewBox="0 0 172 172"><g fill="none" fill-rule="nonzero" stroke="none" stroke-width="1" stroke-linecap="butt" stroke-linejoin="miter" stroke-miterlimit="10" stroke-dasharray="" stroke-dashoffset="0" font-family="none" font-weight="none" font-size="none" text-anchor="none" style="mix-blend-mode: normal"><path d="M0,172v-172h172v172z" fill="none"></path><g><path d="M150.0098,97.5412c1.9522,-3.7066 3.0702,-7.9206 3.0702,-12.4012c0,-11.38812 -7.15348,-21.08204 -17.20172,-24.90216c0,-0.01204 0.00172,-0.02408 0.00172,-0.03784c0,-19.94856 -16.17144,-36.12 -36.12,-36.12c-16.82848,0 -30.92732,11.52572 -34.93836,27.10204c-2.53872,-0.8342 -5.24428,-1.30204 -8.06164,-1.30204c-13.23024,0 -24.11956,9.96396 -25.6108,22.79344c-8.95088,1.89372 -15.6692,9.83324 -15.6692,19.34656c0,10.92372 8.85628,19.78 19.78,19.78c0.30444,0 0.60544,-0.02064 0.90472,-0.03784c-0.00688,0.301 -0.04472,0.59512 -0.04472,0.89784c0,19.47384 15.78616,35.26 35.26,35.26c11.07164,0 20.941,-5.11184 27.40648,-13.09608c3.74616,3.827 8.95432,6.21608 14.73352,6.21608c7.998,0 14.91928,-4.558 18.34552,-11.21096c1.80944,0.5762 3.73412,0.89096 5.73448,0.89096c10.449,0 18.92,-8.471 18.92,-18.92c0,-5.69492 -2.5284,-10.78956 -6.5102,-14.2588z" fill="#c7ede6"></path><path d="M31.6566,82.56h-17.0366c-0.47472,0 -0.86,-0.38528 -0.86,-0.86c0,-0.47472 0.38528,-0.86 0.86,-0.86h17.0366c0.47472,0 0.86,0.38528 0.86,0.86c0,0.47472 -0.38356,0.86 -0.86,0.86z" fill="#ffffff"></path><path d="M36.98,82.56h-1.72c-0.47472,0 -0.86,-0.38528 -0.86,-0.86c0,-0.47472 0.38528,-0.86 0.86,-0.86h1.72c0.47472,0 0.86,0.38528 0.86,0.86c0,0.47472 -0.38356,0.86 -0.86,0.86z" fill="#ffffff"></path><path d="M45.56452,86h-15.46452c-0.47472,0 -0.86,-0.38528 -0.86,-0.86c0,-0.47472 0.38528,-0.86 0.86,-0.86h15.46452c0.47472,0 0.86,0.38528 0.86,0.86c0,0.47472 -0.38528,0.86 -0.86,0.86z" fill="#ffffff"></path><path d="M26.66,86h-1.72c-0.47472,0 -0.86,-0.38528 -0.86,-0.86c0,-0.47472 0.38528,-0.86 0.86,-0.86h1.72c0.47472,0 0.86,0.38528 0.86,0.86c0,0.47472 -0.38356,0.86 -0.86,0.86z" fill="#ffffff"></path><path d="M21.5,86h-3.44c-0.47472,0 -0.86,-0.38528 -0.86,-0.86c0,-0.47472 0.38528,-0.86 0.86,-0.86h3.44c0.47472,0 0.86,0.38528 0.86,0.86c0,0.47472 -0.38356,0.86 -0.86,0.86z" fill="#ffffff"></path><path d="M31.82,89.44h-3.44c-0.47472,0 -0.86,-0.38528 -0.86,-0.86c0,-0.47472 0.38528,-0.86 0.86,-0.86h3.44c0.47472,0 0.86,0.38528 0.86,0.86c0,0.47472 -0.38528,0.86 -0.86,0.86z" fill="#ffffff"></path><path d="M36.98,73.96c-0.30444,0 -1.41556,0 -1.72,0c-0.47472,0 -0.86,0.38528 -0.86,0.86c0,0.47472 0.38528,0.86 0.86,0.86c0.30444,0 1.41556,0 1.72,0c0.47472,0 0.86,-0.38528 0.86,-0.86c0,-0.47472 -0.38528,-0.86 -0.86,-0.86z" fill="#ffffff"></path><path d="M36.98,77.4c-0.30444,0 -8.29556,0 -8.6,0c-0.47472,0 -0.86,0.38528 -0.86,0.86c0,0.47472 0.38528,0.86 0.86,0.86c0.30444,0 8.29556,0 8.6,0c0.47472,0 0.86,-0.38528 0.86,-0.86c0,-0.47472 -0.38528,-0.86 -0.86,-0.86z" fill="#ffffff"></path><path d="M45.58,80.84c-0.30444,0 -4.85556,0 -5.16,0c-0.47472,0 -0.86,0.38528 -0.86,0.86c0,0.47472 0.38528,0.86 0.86,0.86c0.30444,0 4.85556,0 5.16,0c0.47472,0 0.86,-0.38528 0.86,-0.86c0,-0.47472 -0.38528,-0.86 -0.86,-0.86z" fill="#ffffff"></path><path d="M146.2,110.08h-17.2c-0.47472,0 -0.86,-0.38528 -0.86,-0.86c0,-0.47472 0.38528,-0.86 0.86,-0.86h17.2c0.47472,0 0.86,0.38528 0.86,0.86c0,0.47472 -0.38528,0.86 -0.86,0.86z" fill="#ffffff"></path><path d="M153.08,110.08h-3.44c-0.47472,0 -0.86,-0.38528 -0.86,-0.86c0,-0.47472 0.38528,-0.86 0.86,-0.86h3.44c0.47472,0 0.86,0.38528 0.86,0.86c0,0.47472 -0.38528,0.86 -0.86,0.86z" fill="#ffffff"></path><path d="M161.68,113.52h-17.2c-0.47472,0 -0.86,-0.38528 -0.86,-0.86c0,-0.47472 0.38528,-0.86 0.86,-0.86h17.2c0.47472,0 0.86,0.38528 0.86,0.86c0,0.47472 -0.38356,0.86 -0.86,0.86z" fill="#ffffff"></path><path d="M141.04,113.52h-1.72c-0.47472,0 -0.86,-0.38528 -0.86,-0.86c0,-0.47472 0.38528,-0.86 0.86,-0.86h1.72c0.47472,0 0.86,0.38528 0.86,0.86c0,0.47472 -0.38528,0.86 -0.86,0.86z" fill="#ffffff"></path><path d="M135.665,113.52h-3.225c-0.47472,0 -0.86,-0.38528 -0.86,-0.86c0,-0.47472 0.38528,-0.86 0.86,-0.86h3.225c0.47472,0 0.86,0.38528 0.86,0.86c0,0.47472 -0.38528,0.86 -0.86,0.86z" fill="#ffffff"></path><path d="M151.36,106.64h-8.6c-0.47472,0 -0.86,-0.38528 -0.86,-0.86c0,-0.47472 0.38528,-0.86 0.86,-0.86h8.6c0.47472,0 0.86,0.38528 0.86,0.86c0,0.47472 -0.38356,0.86 -0.86,0.86z" fill="#ffffff"></path><path d="M146.2,116.96h-3.44c-0.47472,0 -0.86,-0.38528 -0.86,-0.86c0,-0.47472 0.38528,-0.86 0.86,-0.86h3.44c0.47472,0 0.86,0.38528 0.86,0.86c0,0.47472 -0.38528,0.86 -0.86,0.86z" fill="#ffffff"></path><g><path d="M113.95,59.34c0,0 -2.69524,0 -6.02,0c-3.32476,0 -6.02,-2.69524 -6.02,-6.02c0,-3.06332 2.2962,-5.56248 5.2546,-5.9426c-0.04816,-0.30788 -0.0946,-0.61576 -0.0946,-0.9374c0,-3.32476 2.69524,-6.02 6.02,-6.02c1.77504,0 3.354,0.7826 4.4548,2.0038c0.66048,-3.10976 3.41764,-5.4438 6.7252,-5.4438c3.79948,0 6.88,3.08052 6.88,6.88c0,0.32852 -0.0516,0.64328 -0.09632,0.95976c0.73616,-0.59168 1.6598,-0.95976 2.67632,-0.95976c2.11216,0 3.8614,1.52564 4.2226,3.5346c0.30788,-0.04816 0.61576,-0.0946 0.9374,-0.0946c3.32476,0 6.02,2.69524 6.02,6.02c0,3.32476 -2.69524,6.02 -6.02,6.02c-3.32476,0 -12.9,0 -12.9,0v0.86h-12.04z" fill="#fdfcef"></path><path d="M110.94,51.6c0.23736,0 0.43,-0.19264 0.43,-0.43c0,-2.10356 -1.7114,-3.81496 -3.81496,-3.81496c-0.05848,0.01548 -1.26764,-0.00172 -2.13968,0.23392c-0.22876,0.06192 -0.36464,0.29756 -0.30272,0.52632c0.06192,0.23048 0.29756,0.36636 0.52632,0.30272c0.76368,-0.2064 1.892,-0.2064 1.91436,-0.20296c1.63056,0 2.95668,1.32612 2.95668,2.95496c0,0.23736 0.19264,0.43 0.43,0.43z" fill="#472b29"></path><circle cx="71.25" cy="34.5" transform="scale(1.72,1.72)" r="0.5" fill="#472b29"></circle><path d="M107.93,60.2h6.02c0.47472,0 0.86,-0.38528 0.86,-0.86c0,-0.47472 -0.38528,-0.86 -0.86,-0.86h-6.02c-2.84488,0 -5.16,-2.31512 -5.16,-5.16c0,-2.57312 1.935,-4.76096 4.50296,-5.08948c0.23048,-0.03096 0.4386,-0.15136 0.57792,-0.33712c0.13932,-0.18576 0.1978,-0.41968 0.16168,-0.64844c-0.03956,-0.26488 -0.08256,-0.52976 -0.08256,-0.80496c0,-2.84488 2.31512,-5.16 5.16,-5.16c1.462,0 2.81736,0.6106 3.81668,1.72c0.215,0.23908 0.55212,0.34056 0.86,0.25456c0.31304,-0.08428 0.55212,-0.3354 0.6192,-0.65188c0.58652,-2.75888 3.0616,-4.76268 5.88412,-4.76268c3.3196,0 6.02,2.7004 6.02,6.02c0,0.24596 -0.03612,0.4816 -0.07052,0.71896c-0.04988,0.34916 0.10836,0.75336 0.41624,0.9288c0.30788,0.17544 0.68112,0.20296 0.95632,-0.0172c0.6278,-0.50396 1.36568,-0.77056 2.13796,-0.77056c1.66152,0 3.08224,1.18852 3.37636,2.82768c0.08256,0.45924 0.50912,0.76712 0.97868,0.6966c0.26488,-0.04128 0.52976,-0.08428 0.80496,-0.08428c2.84488,0 5.16,2.31512 5.16,5.16c0,2.84488 -2.31512,5.16 -5.16,5.16h-12.9c-0.47472,0 -0.86,0.38528 -0.86,0.86c0,0.47472 0.38528,0.86 0.86,0.86h12.9c3.79432,0 6.88,-3.08568 6.88,-6.88c0,-3.79432 -3.08568,-6.88 -6.88,-6.88c-0.10148,0 -0.19952,0.00344 -0.29928,0.01032c-0.71208,-2.03992 -2.64364,-3.45032 -4.86072,-3.45032c-0.60028,0 -1.18508,0.10492 -1.73892,0.3096c-0.2838,-4.01276 -3.6378,-7.1896 -7.72108,-7.1896c-3.14932,0 -5.96152,1.93844 -7.14316,4.77128c-1.1696,-0.85656 -2.58344,-1.33128 -4.03684,-1.33128c-3.79432,0 -6.88,3.08568 -6.88,6.88c0,0.08256 0.00172,0.1634 0.00688,0.24424c-2.99796,0.77056 -5.16688,3.48644 -5.16688,6.63576c0,3.79432 3.08568,6.88 6.88,6.88z" fill="#472b29"></path><path d="M117.39,58.48c0.27348,0 1.44652,0 1.72,0c0.47472,0 0.86,0.38528 0.86,0.86c0,0.47472 -0.38528,0.86 -0.86,0.86c-0.27348,0 -1.44652,0 -1.72,0c-0.47472,0 -0.86,-0.38528 -0.86,-0.86c0,-0.47472 0.38528,-0.86 0.86,-0.86z" fill="#472b29"></path></g><g><path d="M57.65612,131.236c-1.72688,0 -3.13212,-1.40524 -3.13212,-3.13212v-70.44776c0,-1.72688 1.40524,-3.13212 3.13212,-3.13212h54.96604c1.72688,0 3.13212,1.40524 3.13212,3.13212v70.44604c0,1.72688 -1.40524,3.13212 -3.13212,3.13212h-54.96604z" fill="#be7841"></path><path d="M112.62216,55.728c1.06468,0 1.92984,0.86516 1.92984,1.92984v70.44432c0,1.06468 -0.86516,1.92984 -1.92984,1.92984h-54.96432c-1.06468,0 -1.92984,-0.86516 -1.92984,-1.92984v-70.44432c0,-1.06468 0.86516,-1.92984 1.92984,-1.92984h54.96432M112.62216,53.32h-54.96432c-2.39596,0 -4.33784,1.94188 -4.33784,4.33784v70.44432c0,2.39596 1.94188,4.33784 4.33784,4.33784h54.96432c2.39596,0 4.33784,-1.94188 4.33784,-4.33784v-70.44432c0,-2.39596 -1.94188,-4.33784 -4.33784,-4.33784z" fill="#472b29"></path></g><g><path d="M59.684,124.356v-62.952h50.912v51.67224l-11.71148,11.27976z" fill="#fffef4"></path><path d="M109.392,62.608v49.9574l-10.99252,10.5866h-37.51148v-60.544h48.504M111.8,60.2h-53.32v65.36h40.89128l12.42872,-11.9712v-53.3888z" fill="#472b29"></path></g><g fill="#88cdd7"><path d="M108.46664,113.52l-8.71352,8.06336l-0.04988,-8.06336z"></path></g><g><path d="M76.03776,65.876c-1.42932,0 -2.59376,-0.9976 -2.59376,-2.22396v-5.56076c0,-1.22464 0.5676,-1.41384 0.75336,-1.47576c0.06192,-0.02236 0.12212,-0.04644 0.17888,-0.0774l6.72004,-3.54148c1.81116,-0.8858 3.38324,-1.30548 4.9192,-1.30548c1.54112,0 3.1562,0.42312 5.07744,1.32784l6.64952,3.97148c0.05676,0.0344 0.11524,0.06192 0.17716,0.086c0.61576,0.24252 0.63296,0.93568 0.63296,1.0148v5.56076c0,1.22636 -1.16444,2.22396 -2.59376,2.22396z" fill="#ffea00"></path><path d="M86.01892,52.89516c1.333,0 2.752,0.37152 4.46168,1.16444l6.6478,3.96288c0.07224,0.043 0.1462,0.08256 0.22188,0.11696v5.51088c0,0.55212 -0.6364,1.01996 -1.38976,1.01996h-19.92276c-0.75336,0 -1.38976,-0.46784 -1.38976,-1.01996v-5.56248c0,-0.17372 0.01892,-0.29756 0.03784,-0.37324c0.086,-0.0344 0.17028,-0.07224 0.25284,-0.11524l6.6564,-3.50708c1.67184,-0.817 3.07708,-1.19712 4.42384,-1.19712M86.01892,50.48716c-1.76644,0 -3.51396,0.4816 -5.48164,1.44308l-6.72004,3.53976c-1.2556,0.4214 -1.57724,1.61336 -1.57724,2.61956v5.56248c0,1.89372 1.70108,3.42796 3.79776,3.42796h19.92276c2.0984,0 3.79948,-1.53424 3.79948,-3.42796v-5.56248c0,-0.66736 -0.32336,-1.71312 -1.39836,-2.13452l-6.751,-4.0248c-2.03992,-0.96148 -3.82528,-1.44308 -5.59172,-1.44308z" fill="#472b29"></path></g><g fill="#472b29"><circle cx="50" cy="33" transform="scale(1.72,1.72)" r="1"></circle></g><g fill="#472b29"><path d="M100.104,123.84h-2.408v-11.18c0,-0.66564 0.53836,-1.204 1.204,-1.204h11.18v2.408h-9.976z"></path></g><g><path d="M44.72,139.32h-9.89c-4.2742,1.29 -7.74,-2.1758 -7.74,-6.45c0,-4.01276 3.06504,-7.27388 6.9746,-7.6626c-0.03784,-0.31132 -0.0946,-0.61576 -0.0946,-0.9374c0,-4.2742 3.4658,-7.74 7.74,-7.74c2.47336,0 4.64916,1.17992 6.06644,2.98592c0.2408,-4.53392 3.95944,-8.14592 8.55356,-8.14592c4.74892,0 8.6,3.85108 8.6,8.6c0,0.76712 -0.13244,1.4964 -0.32164,2.20504c1.10424,-1.33644 2.752,-2.20504 4.62164,-2.20504c3.06332,0 5.56248,2.2962 5.9426,5.2546c0.31132,-0.03784 0.61576,-0.0946 0.9374,-0.0946c4.2742,0 7.74,3.4658 7.74,7.74c0,4.2742 -3.4658,7.74 -7.74,6.45h-16.34h-9.89v1.72h-5.16z" fill="#fdfcef"></path><path d="M55.9,110.08c5.21676,0 9.46,4.24324 9.46,9.46c0,0.02752 0,0.05332 0,0.08084c1.03544,-0.6106 2.2188,-0.94084 3.44,-0.94084c3.14932,0 5.86692,2.16892 6.63576,5.1686c0.08084,-0.00516 0.16168,-0.0086 0.24424,-0.0086c5.33028,0 9.54428,4.87448 8.41596,10.40084c-0.8256,4.04372 -4.62508,6.79916 -8.75308,6.79916h-25.24788c-0.47472,0 -0.86,-0.38528 -0.86,-0.86c0,-0.47472 0.38528,-0.86 0.86,-0.86h25.31496c3.3024,0 6.34164,-2.20504 7.00212,-5.44036c0.903,-4.4204 -2.4682,-8.31964 -6.73208,-8.31964c-0.20124,0 -0.3956,0.02924 -0.58996,0.05504l-0.24252,0.03268c-0.03612,0.00516 -0.07052,0.00688 -0.10664,0.00688c-0.42312,0 -0.79464,-0.3182 -0.8514,-0.75164c-0.32852,-2.56796 -2.51636,-4.50296 -5.08948,-4.50296c-1.5222,0 -2.96356,0.68972 -3.95772,1.892c-0.16856,0.20296 -0.41452,0.31304 -0.66392,0.31304c-0.13416,0 -0.26832,-0.03096 -0.39216,-0.09632c-0.35948,-0.18404 -0.54008,-0.59512 -0.43688,-0.98556c0.2752,-1.032 0.34744,-1.83868 0.25284,-2.66428c-0.4128,-3.65844 -3.36948,-6.72348 -7.03824,-7.03136c-4.38772,-0.3698 -8.127,2.97216 -8.35748,7.30312c-0.01892,0.35776 -0.258,0.66564 -0.60028,0.774c-0.086,0.02752 -0.17372,0.04128 -0.26144,0.04128c-0.258,0 -0.50912,-0.11868 -0.67424,-0.33024c-1.32784,-1.68732 -3.29036,-2.65568 -5.39048,-2.65568c-3.79432,0 -6.88,3.08568 -6.88,6.88c0,0.20124 0.02924,0.3956 0.05504,0.58996l0.03268,0.24252c0.02752,0.23048 -0.03784,0.46096 -0.18232,0.64156c-0.14448,0.1806 -0.35604,0.29584 -0.5848,0.3182c-4.04544,0.40248 -6.95224,4.17788 -6.02688,8.3678c0.70176,3.18716 3.73928,5.31996 7.00384,5.31996h10.23744c0.47472,0 0.86,0.38528 0.86,0.86c0,0.47472 -0.38528,0.86 -0.86,0.86h-10.21336c-4.24324,0 -8.09776,-2.93088 -8.7978,-7.11736c-0.79464,-4.75236 2.31168,-8.9784 6.76132,-9.8728c-0.00344,-0.0688 -0.00516,-0.13932 -0.00516,-0.20984c0,-4.74204 3.85796,-8.6 8.6,-8.6c2.02272,0 3.94396,0.71552 5.47476,2.00208c1.02856,-4.13488 4.75064,-7.16208 9.14524,-7.16208z" fill="#472b29"></path><path d="M58.91,122.55c2.41316,0 4.48748,1.71828 5.01036,4.02652c0.63124,-0.38184 1.35192,-0.58652 2.08464,-0.58652c2.06744,0 3.78056,1.54284 4.04716,3.55696c0.34916,-0.0774 0.68112,-0.11696 1.0062,-0.11696c2.62988,0 4.83492,2.064 5.01896,4.69904c0.01548,0.23736 -0.16168,0.44204 -0.39904,0.45924c-0.01032,0 -0.02064,0 -0.03096,0c-0.2236,0 -0.4128,-0.17372 -0.42828,-0.39904c-0.15308,-2.18612 -1.97972,-3.90096 -4.16068,-3.90096c-0.39388,0 -0.8084,0.07224 -1.26936,0.21844c-0.03784,0.01204 -0.0774,0.0172 -0.11524,0.0172c-0.0946,0 -0.1892,-0.0344 -0.26832,-0.09288c-0.11008,-0.08084 -0.17544,-0.22188 -0.17544,-0.35948c0,-1.77848 -1.44652,-3.225 -3.225,-3.225c-0.76884,0 -1.5222,0.28896 -2.11732,0.81356c-0.08084,0.07052 -0.18232,0.10836 -0.2838,0.10836c-0.05504,0 -0.10836,-0.01032 -0.15996,-0.03268c-0.15136,-0.0602 -0.25456,-0.20124 -0.2666,-0.36464c-0.17544,-2.22224 -2.04852,-3.9646 -4.26388,-3.9646c-0.35776,0 -0.731,0.05848 -1.17304,0.18404c-0.03956,0.01204 -0.08084,0.0172 -0.1204,0.0172c-0.18748,0 -0.35604,-0.12556 -0.41108,-0.31304c-0.06536,-0.22876 0.06708,-0.46612 0.29584,-0.53148c0.516,-0.14448 0.96492,-0.21328 1.40524,-0.21328z" fill="#472b29"></path><path d="M35.03124,125.13c2.28072,0 4.31376,1.54284 4.94328,3.75304c0.06536,0.22876 -0.06708,0.46612 -0.29584,0.53148c-0.03956,0.01204 -0.07912,0.0172 -0.11696,0.0172c-0.18748,0 -0.35948,-0.12384 -0.4128,-0.31304c-0.5246,-1.84212 -2.21708,-3.12696 -4.11596,-3.12696c-0.20124,0 -0.3956,0.02408 -0.58824,0.04988c-0.02064,0.00344 -0.03956,0.00516 -0.0602,0.00516c-0.20812,0 -0.39388,-0.15824 -0.42312,-0.37324c-0.03268,-0.23564 0.13244,-0.45236 0.36808,-0.48332c0.22876,-0.03268 0.46268,-0.0602 0.70176,-0.0602z" fill="#472b29"></path></g><g><path d="M93.66432,94.03412l-4.16584,10.30968l10.30968,-4.16584" fill="#fffef4"></path><path d="M89.49848,105.5478c-0.31304,0 -0.62092,-0.12212 -0.8514,-0.3526c-0.34056,-0.34228 -0.44548,-0.85484 -0.26488,-1.30376l4.16584,-10.30968l2.23428,0.903l-3.1046,7.67808l7.6798,-3.1046l0.903,2.23428l-10.30968,4.16756c-0.1462,0.0602 -0.301,0.08772 -0.45236,0.08772z" fill="#472b29"></path><path d="M119.62256,78.35632c-1.11112,0 -2.15172,-0.42828 -2.92916,-1.20572c-1.61508,-1.61508 -1.61508,-4.24324 0,-5.85832l3.24048,-3.24048c0.77744,-0.77916 1.81976,-1.20744 2.92916,-1.20744c1.1094,0 2.15172,0.42828 2.92916,1.20744c1.61508,1.61336 1.61508,4.24324 0,5.8566l-3.2422,3.2422c-0.77744,0.77744 -1.81804,1.20572 -2.92744,1.20572z" fill="#ef7d99"></path><path d="M122.86304,68.04836c0.78948,0 1.52736,0.30272 2.07776,0.85484c0.5504,0.5504 0.85484,1.28828 0.85484,2.07776c0,0.78948 -0.30272,1.52736 -0.85484,2.07776l-3.24048,3.24048c-0.5504,0.5504 -1.28828,0.85484 -2.07776,0.85484c-0.78948,0 -1.52736,-0.30444 -2.07776,-0.85484c-1.14552,-1.14552 -1.14552,-3.01 0,-4.15552l3.24048,-3.24048c0.5504,-0.55212 1.28828,-0.85484 2.07776,-0.85484M122.86304,65.64036c-1.37084,0 -2.74168,0.51944 -3.78056,1.55832l-3.24048,3.24048c-2.07948,2.07948 -2.07948,5.48164 0,7.56112c1.03888,1.03888 2.40972,1.56004 3.78056,1.56004c1.37084,0 2.74168,-0.51944 3.78056,-1.56004l3.24048,-3.24048c2.07948,-2.07948 2.07948,-5.48164 0,-7.56112v0c-1.0406,-1.03888 -2.41144,-1.55832 -3.78056,-1.55832z" fill="#472b29"></path><g><rect x="0.27095" y="77.27956" transform="rotate(-45.001) scale(1.72,1.72)" width="18.138" height="4.816" fill="#ffea00"></rect><path d="M116.38208,73.30468l4.15552,4.15552l-20.35792,20.35792l-4.15552,-4.15552l20.35792,-20.35792M116.38208,69.89908l-23.76352,23.76352l7.56112,7.56112l23.76352,-23.76352l-7.56112,-7.56112z" fill="#472b29"></path></g><g><rect x="17.1424" y="77.28226" transform="rotate(-45.001) scale(1.72,1.72)" width="3.04" height="4.816" fill="#88cdd7"></rect><path d="M118.5424,71.14436l4.15552,4.15552l-1.9952,1.9952l-4.15552,-4.15552l1.9952,-1.9952M118.5424,67.73876l-5.4008,5.4008l7.56112,7.56112l5.4008,-5.4008l-7.56112,-7.56112z" fill="#472b29"></path></g></g><g fill="#472b29"><path d="M66.22,111.37c-0.23736,0 -0.43,-0.19264 -0.43,-0.43v-6.88c0,-0.23736 0.19264,-0.43 0.43,-0.43c0.23736,0 0.43,0.19264 0.43,0.43v6.88c0,0.23736 -0.19264,0.43 -0.43,0.43z"></path></g><g fill="#472b29"><path d="M66.22,101.05c-0.23736,0 -0.43,-0.19264 -0.43,-0.43v-25.8c0,-0.23736 0.19264,-0.43 0.43,-0.43c0.23736,0 0.43,0.19264 0.43,0.43v25.8c0,0.23736 -0.19264,0.43 -0.43,0.43z"></path></g><g fill="#472b29"><path d="M79.98,118.25h-3.44c-0.23736,0 -0.43,-0.19264 -0.43,-0.43c0,-0.23736 0.19264,-0.43 0.43,-0.43h3.44c0.23736,0 0.43,0.19264 0.43,0.43c0,0.23736 -0.19264,0.43 -0.43,0.43z"></path></g><g fill="#472b29"><path d="M92.02,118.25h-8.6c-0.23736,0 -0.43,-0.19264 -0.43,-0.43c0,-0.23736 0.19264,-0.43 0.43,-0.43h8.6c0.23736,0 0.43,0.19264 0.43,0.43c0,0.23736 -0.19264,0.43 -0.43,0.43z"></path></g></g></g></svg>